<svg width="40" height="40" viewBox="0 0 40 40" fill="none" xmlns="http://www.w3.org/2000/svg">
<circle cx="20" cy="20" r="20" fill="#F5F5F5"/>
<path d="M24.54 17.0752H24.5615C25.7108 17.0753 26.6741 17.4646 27.3564 18.2393C28.0021 18.9724 28.4427 20.1034 28.4951 21.7119L28.5 22.04L28.499 28.5H25.6426V22.5078C25.6426 21.6489 25.4993 20.8486 25.1094 20.249C24.6971 19.6151 24.0452 19.2607 23.1904 19.2607H23.1885C22.6448 19.2635 22.1171 19.4424 21.6787 19.7695C21.2407 20.0963 20.9135 20.5545 20.7383 21.0781L20.7363 21.085C20.6198 21.451 20.5694 21.8361 20.585 22.2207H20.584V28.5H17.7334C17.7418 26.5557 17.7666 19.5008 17.7393 17.3613H20.5869V18.582L21.5254 18.8232C21.8311 18.2664 22.2752 17.8109 22.8066 17.5039C23.3378 17.1972 23.9371 17.0495 24.54 17.0752ZM14.5967 17.3604V28.5H11.7402V17.3604H14.5967ZM13.1465 11.5068L13.1895 11.5107L13.2324 11.5078C13.4368 11.4921 13.6426 11.5201 13.8369 11.5918C14.0313 11.6636 14.2111 11.7779 14.3643 11.9277C14.5175 12.0777 14.6413 12.2608 14.7256 12.4658C14.8098 12.6708 14.8529 12.8927 14.8516 13.1172C14.8502 13.3416 14.8044 13.5629 14.7178 13.7666C14.6311 13.9703 14.5055 14.152 14.3506 14.2998C14.1957 14.4475 14.0145 14.5587 13.8193 14.6279C13.6243 14.6971 13.4181 14.7235 13.2139 14.7051L13.1914 14.7031H13.126L13.1084 14.7041C12.9041 14.7183 12.6986 14.6883 12.5049 14.6152C12.311 14.542 12.1317 14.4264 11.9795 14.2754C11.8273 14.1244 11.705 13.9408 11.6221 13.7354C11.5391 13.5298 11.4973 13.3075 11.5 13.083C11.5027 12.8586 11.5499 12.6376 11.6377 12.4346C11.7256 12.2315 11.8521 12.0511 12.0078 11.9043C12.1635 11.7576 12.3455 11.6471 12.541 11.5791C12.7363 11.5113 12.9425 11.4872 13.1465 11.5068Z" stroke="black"/>
</svg>
