<svg width="16" height="16" viewBox="0 0 16 16" fill="none" xmlns="http://www.w3.org/2000/svg">
<path d="M15.4775 12.7475C15.4775 13.0175 15.4175 13.295 15.29 13.565C15.1625 13.835 14.9975 14.09 14.78 14.33C14.4125 14.735 14.0075 15.0275 13.55 15.215C13.1 15.4025 12.6125 15.5 12.0875 15.5C11.3225 15.5 10.505 15.32 9.6425 14.9525C8.78 14.585 7.9175 14.09 7.0625 13.4675C6.2 12.8375 5.3825 12.14 4.6025 11.3675C3.83 10.5875 3.1325 9.77 2.51 8.915C1.895 8.06 1.4 7.205 1.04 6.3575C0.68 5.5025 0.5 4.685 0.5 3.905C0.5 3.395 0.59 2.9075 0.77 2.4575C0.95 2 1.235 1.58 1.6325 1.205C2.1125 0.7325 2.6375 0.5 3.1925 0.5C3.4025 0.5 3.6125 0.545 3.8 0.635C3.995 0.725 4.1675 0.86 4.3025 1.055L6.0425 3.5075C6.1775 3.695 6.275 3.8675 6.3425 4.0325C6.41 4.19 6.4475 4.3475 6.4475 4.49C6.4475 4.67 6.395 4.85 6.29 5.0225C6.1925 5.195 6.05 5.375 5.87 5.555L5.3 6.1475C5.2175 6.23 5.18 6.3275 5.18 6.4475C5.18 6.5075 5.1875 6.56 5.2025 6.62C5.225 6.68 5.2475 6.725 5.2625 6.77C5.3975 7.0175 5.63 7.34 5.96 7.73C6.2975 8.12 6.6575 8.5175 7.0475 8.915C7.4525 9.3125 7.8425 9.68 8.24 10.0175C8.63 10.3475 8.9525 10.5725 9.2075 10.7075C9.245 10.7225 9.29 10.745 9.3425 10.7675C9.4025 10.79 9.4625 10.7975 9.53 10.7975C9.6575 10.7975 9.755 10.7525 9.8375 10.67L10.4075 10.1075C10.595 9.92 10.775 9.7775 10.9475 9.6875C11.12 9.5825 11.2925 9.53 11.48 9.53C11.6225 9.53 11.7725 9.56 11.9375 9.6275C12.1025 9.695 12.275 9.7925 12.4625 9.92L14.945 11.6825C15.14 11.8175 15.275 11.975 15.3575 12.1625C15.4325 12.35 15.4775 12.5375 15.4775 12.7475Z" stroke="black" stroke-miterlimit="10"/>
</svg>
