<svg width="40" height="40" viewBox="0 0 40 40" fill="none" xmlns="http://www.w3.org/2000/svg">
<circle cx="20" cy="20" r="20" fill="#F5F5F5"/>
<path d="M27.4775 24.7475C27.4775 25.0175 27.4175 25.295 27.29 25.565C27.1625 25.835 26.9975 26.09 26.78 26.33C26.4125 26.735 26.0075 27.0275 25.55 27.215C25.1 27.4025 24.6125 27.5 24.0875 27.5C23.3225 27.5 22.505 27.32 21.6425 26.9525C20.78 26.585 19.9175 26.09 19.0625 25.4675C18.2 24.8375 17.3825 24.14 16.6025 23.3675C15.83 22.5875 15.1325 21.77 14.51 20.915C13.895 20.06 13.4 19.205 13.04 18.3575C12.68 17.5025 12.5 16.685 12.5 15.905C12.5 15.395 12.59 14.9075 12.77 14.4575C12.95 14 13.235 13.58 13.6325 13.205C14.1125 12.7325 14.6375 12.5 15.1925 12.5C15.4025 12.5 15.6125 12.545 15.8 12.635C15.995 12.725 16.1675 12.86 16.3025 13.055L18.0425 15.5075C18.1775 15.695 18.275 15.8675 18.3425 16.0325C18.41 16.19 18.4475 16.3475 18.4475 16.49C18.4475 16.67 18.395 16.85 18.29 17.0225C18.1925 17.195 18.05 17.375 17.87 17.555L17.3 18.1475C17.2175 18.23 17.18 18.3275 17.18 18.4475C17.18 18.5075 17.1875 18.56 17.2025 18.62C17.225 18.68 17.2475 18.725 17.2625 18.77C17.3975 19.0175 17.63 19.34 17.96 19.73C18.2975 20.12 18.6575 20.5175 19.0475 20.915C19.4525 21.3125 19.8425 21.68 20.24 22.0175C20.63 22.3475 20.9525 22.5725 21.2075 22.7075C21.245 22.7225 21.29 22.745 21.3425 22.7675C21.4025 22.79 21.4625 22.7975 21.53 22.7975C21.6575 22.7975 21.755 22.7525 21.8375 22.67L22.4075 22.1075C22.595 21.92 22.775 21.7775 22.9475 21.6875C23.12 21.5825 23.2925 21.53 23.48 21.53C23.6225 21.53 23.7725 21.56 23.9375 21.6275C24.1025 21.695 24.275 21.7925 24.4625 21.92L26.945 23.6825C27.14 23.8175 27.275 23.975 27.3575 24.1625C27.4325 24.35 27.4775 24.5375 27.4775 24.7475Z" stroke="black" stroke-miterlimit="10"/>
<path d="M24.875 17.75C24.875 17.3 24.5225 16.61 23.9975 16.0475C23.5175 15.53 22.88 15.125 22.25 15.125" stroke="black" stroke-linecap="round" stroke-linejoin="round"/>
<path d="M27.5 17.75C27.5 14.8475 25.1525 12.5 22.25 12.5" stroke="black" stroke-linecap="round" stroke-linejoin="round"/>
</svg>
