<svg width="40" height="40" viewBox="0 0 40 40" fill="none" xmlns="http://www.w3.org/2000/svg">
<circle cx="20" cy="20" r="20" fill="#F5F5F5"/>
<path d="M27.9961 12.1299C28.0003 12.272 28.0008 12.386 27.9961 12.4736C27.7795 15.2091 26.9331 21.3957 26.3574 25.2725L26.1299 26.7773C26.0239 27.4615 25.8787 27.814 25.7793 27.9736C25.7745 27.9813 25.7679 27.9868 25.7637 27.9932C25.644 27.9752 25.4832 27.9109 25.2393 27.7393C25.0714 27.6211 24.8934 27.4739 24.6807 27.292C24.4781 27.1189 24.2368 26.9083 23.9863 26.709L23.9854 26.708L22.9971 25.9141C22.6938 25.6676 22.4103 25.4347 22.127 25.2021C21.5601 24.7369 20.9934 24.2721 20.2803 23.7061L20.2793 23.7051L20.0615 23.5176C19.8849 23.3516 19.8235 23.248 19.8057 23.207C19.8019 23.1995 19.7984 23.2171 19.8086 23.1895C19.8363 23.1137 19.914 22.9827 20.1084 22.7471C20.2008 22.6351 20.3028 22.5193 20.4229 22.3818C20.5377 22.2504 20.6655 22.1025 20.7939 21.9453C20.7949 21.9441 20.8007 21.9375 20.8135 21.9229C20.8265 21.9079 20.8438 21.8885 20.8652 21.8643C20.9083 21.8155 20.9654 21.751 21.0352 21.6729C21.175 21.5164 21.3608 21.3093 21.5791 21.0654C22.0145 20.579 22.5745 19.9516 23.1299 19.3203C23.6839 18.6905 24.2398 18.0501 24.6641 17.5371C24.875 17.282 25.0617 17.048 25.2021 16.8584C25.2715 16.7648 25.3395 16.6688 25.3955 16.5791C25.4233 16.5345 25.4554 16.4794 25.4854 16.4189C25.5028 16.3837 25.5374 16.3127 25.5654 16.2188L25.5908 16.1172L25.5918 16.1094L25.5938 16.1016C25.6294 15.9049 25.6242 15.7015 25.5791 15.5059C25.534 15.3106 25.4472 15.117 25.3135 14.9463L25.2764 14.8994L25.2354 14.8574L25.124 14.7588C24.899 14.5811 24.6538 14.5168 24.4541 14.502L24.3584 14.498C24.2496 14.498 24.1577 14.5117 24.1045 14.5205C24.0771 14.525 24.0521 14.5294 24.0371 14.5322C24.0187 14.5357 24.0128 14.5363 24.0078 14.5371L23.9629 14.5449L23.9189 14.5566C23.7952 14.5898 23.7024 14.6407 23.6826 14.6514C23.6448 14.6718 23.6117 14.6929 23.5879 14.708C23.5394 14.7388 23.4877 14.7744 23.4385 14.8096C23.3378 14.8814 23.2064 14.9798 23.0488 15.1006C22.7311 15.3442 22.278 15.7007 21.6934 16.167C21.108 16.6338 20.3857 17.2143 19.5264 17.9082L16.5371 20.3301L16.5361 20.3311C16.0082 20.7603 15.6681 20.8849 15.4814 20.9053L15.4102 20.9082H15.4062C15.2472 20.9029 14.9224 20.8374 14.4688 20.7002C14.0406 20.5707 13.5745 20.4013 13.1709 20.2393L13.1631 20.2354L13.1553 20.2324L12.4346 19.96C12.3614 19.9311 12.2972 19.9027 12.2402 19.8779C12.296 19.8431 12.36 19.8062 12.4326 19.7666L12.6709 19.6445L12.6846 19.6377L12.6973 19.6309C16.3393 17.7225 19.056 16.3034 20.8613 15.3779L22.3633 14.6172L22.3672 14.6152C24.6812 13.452 26.0482 12.7838 26.9121 12.4062C27.545 12.1296 27.8419 12.0419 27.9922 12.0137C27.9932 12.0539 27.995 12.094 27.9961 12.1299Z" stroke="black" stroke-width="2"/>
</svg>
