<svg width="18" height="18" viewBox="0 0 18 18" fill="none" xmlns="http://www.w3.org/2000/svg">
<path d="M16.9961 1.12988C17.0003 1.27195 17.0008 1.38603 16.9961 1.47363C16.7795 4.20907 15.9331 10.3957 15.3574 14.2725L15.1299 15.7773C15.0239 16.4615 14.8787 16.814 14.7793 16.9736C14.7745 16.9813 14.7679 16.9868 14.7637 16.9932C14.644 16.9752 14.4832 16.9109 14.2393 16.7393C14.0714 16.6211 13.8934 16.4739 13.6807 16.292C13.4781 16.1189 13.2368 15.9083 12.9863 15.709L12.9854 15.708L11.9971 14.9141C11.6938 14.6676 11.4103 14.4347 11.127 14.2021C10.5601 13.7369 9.99345 13.2721 9.28027 12.7061L9.2793 12.7051L9.06152 12.5176C8.88485 12.3516 8.82346 12.248 8.80566 12.207C8.8019 12.1995 8.79845 12.2171 8.80859 12.1895C8.83634 12.1137 8.91402 11.9827 9.1084 11.7471C9.20079 11.6351 9.30278 11.5193 9.42285 11.3818C9.5377 11.2504 9.6655 11.1025 9.79395 10.9453C9.79495 10.9441 9.80068 10.9375 9.81348 10.9229C9.8265 10.9079 9.84378 10.8885 9.86523 10.8643C9.90829 10.8155 9.96535 10.751 10.0352 10.6729C10.175 10.5164 10.3608 10.3093 10.5791 10.0654C11.0145 9.57903 11.5745 8.95164 12.1299 8.32031C12.6839 7.69052 13.2398 7.05014 13.6641 6.53711C13.875 6.28201 14.0617 6.04797 14.2021 5.8584C14.2715 5.76479 14.3395 5.66877 14.3955 5.5791C14.4233 5.53453 14.4554 5.47939 14.4854 5.41895C14.5028 5.38373 14.5374 5.31265 14.5654 5.21875L14.5908 5.11719L14.5918 5.10938L14.5938 5.10156C14.6294 4.90492 14.6242 4.70146 14.5791 4.50586C14.534 4.31057 14.4472 4.11697 14.3135 3.94629L14.2764 3.89941L14.2354 3.85742L14.124 3.75879C13.899 3.58111 13.6538 3.51677 13.4541 3.50195L13.3584 3.49805C13.2496 3.49805 13.1577 3.51174 13.1045 3.52051C13.0771 3.52502 13.0521 3.52941 13.0371 3.53223C13.0187 3.53569 13.0128 3.53625 13.0078 3.53711L12.9629 3.54492L12.9189 3.55664C12.7952 3.58977 12.7024 3.64071 12.6826 3.65137C12.6448 3.67177 12.6117 3.6929 12.5879 3.70801C12.5394 3.73879 12.4877 3.77442 12.4385 3.80957C12.3378 3.88143 12.2064 3.97977 12.0488 4.10059C11.7311 4.34421 11.278 4.70075 10.6934 5.16699C10.108 5.63379 9.38573 6.21426 8.52637 6.9082L5.53711 9.33008L5.53613 9.33105C5.0082 9.76035 4.66809 9.88494 4.48145 9.90527L4.41016 9.9082H4.40625C4.2472 9.90286 3.92243 9.83743 3.46875 9.7002C3.04059 9.57066 2.5745 9.40132 2.1709 9.23926L2.16309 9.23535L2.15527 9.23242L1.43457 8.95996C1.36139 8.93105 1.29721 8.90266 1.24023 8.87793C1.29598 8.84314 1.36001 8.80625 1.43262 8.7666L1.6709 8.64453L1.68457 8.6377L1.69727 8.63086C5.33933 6.72253 8.05599 5.30339 9.86133 4.37793L11.3633 3.61719L11.3672 3.61523C13.6812 2.452 15.0482 1.78382 15.9121 1.40625C16.545 1.12963 16.8419 1.04189 16.9922 1.01367C16.9932 1.05388 16.995 1.09398 16.9961 1.12988Z" stroke="black" stroke-width="2"/>
</svg>
