<svg width="40" height="40" viewBox="0 0 40 40" fill="none" xmlns="http://www.w3.org/2000/svg">
<circle cx="20" cy="20" r="20" fill="#F5F5F5"/>
<path d="M18.5557 11.6201C23.7183 10.7695 28.1971 14.5679 28.4863 19.498C28.7665 24.2693 24.7821 28.5 20.0039 28.5C18.44 28.4999 16.97 28.0748 15.7031 27.335L15.5215 27.2295L15.3184 27.2852L12.376 28.0947L12.3721 28.0957C12.0831 28.1777 11.8042 27.912 11.8848 27.6084L12.6855 24.6299L12.7393 24.4297L12.6357 24.25C11.7097 22.6441 11.2839 20.6983 11.6074 18.6377V18.6367C12.1593 15.088 15.0079 12.206 18.5557 11.6201Z" stroke="black"/>
<path d="M24.0934 22.593C24.0934 22.7398 24.0607 22.8948 23.9871 23.0416C23.9134 23.1885 23.8235 23.3271 23.7089 23.4577C23.5044 23.6779 23.2835 23.841 23.038 23.9389C22.7925 24.045 22.5225 24.0939 22.2362 24.0939C21.8189 24.0939 21.3689 23.996 20.9025 23.7921C20.428 23.5882 19.9616 23.319 19.4953 22.9845C19.0207 22.6419 18.5789 22.2585 18.1534 21.8425C17.728 21.4183 17.3516 20.9697 17.008 20.5047C16.6726 20.0397 16.4025 19.5748 16.2062 19.1098C16.0098 18.6448 15.9116 18.1962 15.9116 17.772C15.9116 17.4946 15.9607 17.2254 16.0589 16.9807C16.1571 16.7278 16.3125 16.4994 16.5334 16.2955C16.7953 16.0345 17.0816 15.9121 17.3843 15.9121C17.4989 15.9121 17.6135 15.9366 17.7198 15.9855C17.8262 16.0345 17.9243 16.1079 17.998 16.2139L18.9389 17.5599C19.0125 17.6659 19.0698 17.7557 19.1026 17.8454C19.1435 17.9351 19.1598 18.0167 19.1598 18.0983C19.1598 18.1962 19.1271 18.294 19.0698 18.3919C19.0125 18.4898 18.9389 18.5877 18.8407 18.6856L18.5298 19.0119C18.4807 19.0608 18.4643 19.1098 18.4643 19.175C18.4643 19.2077 18.4725 19.2403 18.4807 19.2729C18.4971 19.3056 18.5053 19.33 18.5134 19.3545C18.5871 19.4932 18.718 19.6645 18.898 19.8766C19.0862 20.0887 19.2825 20.3089 19.4953 20.521C19.7162 20.7413 19.9289 20.937 20.1498 21.1247C20.3625 21.3041 20.5425 21.4265 20.6816 21.4999C20.7062 21.508 20.7307 21.5244 20.7552 21.5325C20.788 21.5488 20.8207 21.5488 20.8616 21.5488C20.9352 21.5488 20.9844 21.5244 21.0334 21.4754L21.3444 21.1654C21.4507 21.0594 21.5489 20.986 21.6389 20.937C21.7371 20.8799 21.8271 20.8473 21.9334 20.8473C22.0152 20.8473 22.0971 20.8636 22.1871 20.9044C22.2771 20.9452 22.3753 20.9941 22.4735 21.0676L23.8316 22.0301C23.938 22.1035 24.0116 22.1933 24.0607 22.2912C24.0689 22.3809 24.0934 22.4788 24.0934 22.593Z" fill="black"/>
</svg>
