<svg width="1224" height="286" viewBox="0 0 1224 286" fill="none" xmlns="http://www.w3.org/2000/svg">
<g opacity="0.1" clip-path="url(#clip0_861_3122)">
<path d="M-2.95729e-06 -146.173C11.1692 -157.579 22.6121 -168.341 34.2585 -178.346L34.9667 -178.974L35.3529 -178.641C46.506 -169.082 57.4712 -158.814 68.1897 -147.961C68.6832 -148.251 69.252 -148.423 69.8635 -148.423C70.5181 -148.423 71.124 -148.229 71.639 -147.902C82.2717 -158.669 93.146 -168.857 104.202 -178.357L104.91 -178.98L105.624 -178.362C112.453 -172.498 119.207 -166.376 125.881 -160.017C128.595 -157.434 131.294 -154.808 133.976 -152.144C135.955 -150.179 137.93 -148.186 139.893 -146.178C151.062 -157.584 162.505 -168.347 174.151 -178.351L174.859 -178.98L175.246 -178.647C187.005 -168.561 198.566 -157.708 209.837 -146.194C221.006 -157.601 232.449 -168.357 244.095 -178.362L244.803 -178.985L245.511 -178.362C257.163 -168.357 268.612 -157.595 279.781 -146.183C290.95 -157.59 302.392 -168.352 314.044 -178.357L314.752 -178.985L315.139 -178.652C326.383 -169.012 337.434 -158.664 348.233 -147.714C348.678 -147.956 349.188 -148.095 349.73 -148.095C350.272 -148.095 350.781 -147.956 351.226 -147.714C361.918 -158.556 372.857 -168.808 383.983 -178.368L384.691 -178.99L385.404 -178.373C397.056 -168.363 408.504 -157.601 419.674 -146.194C430.376 -157.128 441.336 -167.455 452.483 -177.1C452.408 -177.32 452.36 -177.551 452.36 -177.798C452.36 -179.012 453.342 -180 454.56 -180C455.777 -180 456.759 -179.017 456.759 -177.798C456.759 -177.6 456.727 -177.412 456.673 -177.229C467.864 -167.546 478.872 -157.176 489.617 -146.199C500.786 -157.606 512.229 -168.363 523.876 -178.367L524.584 -178.99L525.297 -178.373C536.59 -168.669 547.695 -158.25 558.542 -147.231C558.826 -147.365 559.143 -147.451 559.481 -147.451C559.861 -147.451 560.216 -147.343 560.532 -147.171C562.179 -148.847 563.826 -150.512 565.484 -152.16C568.166 -154.824 570.864 -157.445 573.579 -160.033C580.252 -166.392 587.006 -172.508 593.83 -178.367L594.538 -178.996L594.924 -178.663C606.684 -168.577 618.244 -157.724 629.515 -146.205C640.685 -157.617 652.133 -168.373 663.785 -178.384L664.482 -178.996L665.195 -178.378C676.241 -168.889 687.105 -158.712 697.721 -147.961C698.22 -148.299 698.821 -148.493 699.465 -148.493C700.108 -148.493 700.709 -148.294 701.208 -147.961C711.825 -158.712 722.683 -168.884 733.723 -178.367L734.431 -178.996L734.817 -178.663C746.577 -168.577 758.137 -157.724 769.408 -146.205C780.583 -157.617 792.036 -168.379 803.688 -178.389L804.375 -178.99L805.088 -178.373C816.74 -168.363 828.188 -157.601 839.358 -146.194C850.527 -157.601 861.975 -168.363 873.621 -178.367L874.329 -178.996L874.716 -178.663C886.475 -168.577 898.036 -157.724 909.307 -146.205C920.487 -157.622 931.94 -168.389 943.597 -178.4L944.268 -178.996L944.981 -178.378C951.805 -172.514 958.565 -166.392 965.238 -160.033C967.953 -157.45 970.651 -154.824 973.333 -152.16C975.313 -150.195 977.287 -148.203 979.25 -146.194C990.42 -157.601 1001.87 -168.363 1013.51 -178.367L1014.22 -178.996L1014.61 -178.663C1026.37 -168.577 1037.93 -157.724 1049.2 -146.205C1060.38 -157.622 1071.84 -168.389 1083.5 -178.405L1084.17 -178.996L1084.88 -178.378C1096.53 -168.368 1107.98 -157.606 1119.15 -146.199C1130.32 -157.606 1141.77 -168.368 1153.41 -178.373L1154.12 -179.001L1154.51 -178.668C1166.27 -168.583 1177.83 -157.729 1189.1 -146.21C1200.3 -157.697 1211.85 -168.551 1223.61 -178.636L1223.61 -178.625C1223.61 -178.625 1223.63 -178.631 1223.63 -178.636L1223.99 -178.212L1223.99 -177.202C1212.42 -167.251 1201.05 -156.559 1189.96 -145.222C1201.65 -133.23 1213.02 -120.524 1224 -107.211L1224 -105.106C1224 -105.106 1223.99 -105.111 1223.99 -105.117C1219.99 -100.24 1216.04 -95.289 1212.16 -90.257C1204.47 -80.3058 1197.02 -70.054 1189.83 -59.5497C1194.89 -52.144 1199.82 -44.6202 1204.6 -36.9837C1211.42 -26.082 1217.89 -15.0675 1223.99 -3.9832C1223.99 -3.98857 1223.99 -3.99394 1224 -3.99931L1224 -1.21213C1210.79 22.9864 1199.33 47.5233 1189.74 72.028C1209.69 123.142 1221.48 174.123 1224 221.655L1224 257.883C1221.89 295.47 1213.02 328.357 1197.82 354.307L1197.81 354.307L1197.82 354.307C1197.64 354.602 1193.55 361.524 1189.55 363.726L1189.02 363.995L1188.48 363.726C1184.49 361.524 1180.41 354.607 1180.24 354.312L1180.24 354.312L1180.24 354.307L1180.23 354.307C1165.03 328.368 1156.15 295.481 1154.05 257.894C1153.18 273.457 1151.14 288.215 1147.98 302.005C1143.51 321.521 1136.78 339.109 1127.88 354.312L1127.88 354.312C1127.71 354.607 1123.61 361.53 1119.62 363.732L1119.08 364L1118.55 363.732C1114.56 361.53 1110.47 354.613 1110.3 354.317C1101.8 339.812 1095.29 323.143 1090.82 304.696C1090.73 304.331 1090.64 303.971 1090.56 303.6C1090.51 303.407 1090.47 303.208 1090.42 303.015C1087.13 288.934 1085.02 273.838 1084.12 257.894C1082.01 295.481 1073.15 328.363 1057.94 354.312L1057.95 354.312C1057.78 354.613 1053.68 361.53 1049.69 363.732L1049.16 364L1048.62 363.732C1044.63 361.53 1040.55 354.613 1040.37 354.317L1041.52 353.646C1041.55 353.716 1045.51 360.418 1049.16 362.507C1052.75 360.445 1056.65 353.915 1056.81 353.657L1056.79 353.646C1076.46 320.066 1085.47 274.746 1082.83 222.595C1080.44 175.379 1068.84 124.716 1049.15 73.8807C1029.46 124.711 1017.86 175.374 1015.47 222.595C1012.83 274.746 1021.84 320.066 1041.52 353.646L1040.37 354.317C1040.37 354.317 1040.37 354.317 1040.37 354.312L1040.36 354.312C1025.16 328.374 1016.29 295.486 1014.18 257.899C1013.31 273.462 1011.28 288.22 1008.12 302.011C1003.64 321.521 996.916 339.109 988.016 354.307L988.038 354.317C987.866 354.613 983.767 361.53 979.776 363.732L979.24 364L978.703 363.732C974.712 361.53 970.629 354.613 970.458 354.317L971.6 353.646C971.638 353.716 975.597 360.418 979.24 362.507C982.823 360.45 986.723 353.931 986.884 353.657L986.863 353.646C1006.54 320.066 1015.55 274.751 1012.91 222.595C1012.71 218.766 1012.46 214.921 1012.15 211.049C1011.94 208.471 1011.7 205.877 1011.44 203.283C1011.18 200.684 1010.89 198.079 1010.57 195.464C1005.89 156.637 995.414 115.995 979.733 75.2232C979.562 75.2501 979.39 75.2662 979.213 75.2662C979.036 75.2662 978.864 75.2501 978.693 75.2232C963.012 115.995 952.54 156.642 947.857 195.464C946.752 204.615 945.974 213.669 945.523 222.595C942.884 274.751 951.891 320.066 971.568 353.646L970.426 354.317C961.928 339.812 955.415 323.143 950.947 304.696C950.856 304.331 950.764 303.971 950.679 303.6C950.63 303.407 950.593 303.208 950.544 303.015C947.251 288.934 945.142 273.838 944.246 257.894C942.138 295.475 933.276 328.357 918.072 354.301L918.094 354.312C917.922 354.607 913.824 361.524 909.832 363.726L909.296 363.995L908.759 363.726C904.768 361.524 900.686 354.607 900.514 354.312L901.657 353.641C901.694 353.711 905.653 360.413 909.296 362.502C912.853 360.461 916.715 354.033 916.94 353.657L916.908 353.635C936.586 320.055 945.593 274.735 942.953 222.584C940.566 175.368 928.963 124.705 909.274 73.8699C889.586 124.7 877.983 175.363 875.595 222.584C872.956 274.735 881.963 320.055 901.641 353.635L900.498 354.307C900.498 354.307 900.498 354.307 900.498 354.301L900.487 354.301C885.284 328.363 876.411 295.475 874.308 257.888C873.434 273.452 871.4 288.209 868.241 302C863.766 321.505 857.045 339.093 848.139 354.291L848.172 354.312C848 354.607 843.901 361.524 839.91 363.726L839.374 363.995L838.837 363.726C834.846 361.524 830.763 354.607 830.592 354.312L831.734 353.641C831.772 353.711 835.731 360.413 839.374 362.502C842.925 360.461 846.782 354.049 847.018 353.662L846.981 353.641C866.658 320.06 875.665 274.746 873.026 222.59C872.833 218.76 872.581 214.915 872.264 211.043C872.055 208.466 871.819 205.872 871.556 203.278C871.293 200.684 871.003 198.074 870.687 195.459C865.955 156.202 855.301 115.087 839.331 73.8592C823.36 115.087 812.706 156.202 807.975 195.459C806.869 204.61 806.092 213.664 805.641 222.59C803.002 274.746 812.009 320.06 831.692 353.641L830.549 354.312C822.051 339.807 815.539 323.138 811.07 304.691C810.979 304.325 810.888 303.966 810.802 303.595C810.753 303.402 810.716 303.203 810.668 303.01C807.374 288.929 805.265 273.833 804.37 257.888C802.261 295.464 793.399 328.347 778.201 354.291L778.239 354.312C778.067 354.607 773.968 361.524 769.977 363.726L769.441 363.995L768.904 363.726C764.913 361.524 760.83 354.607 760.659 354.312L761.801 353.641C761.839 353.711 765.798 360.413 769.441 362.502C772.965 360.477 776.801 354.135 777.08 353.668L777.032 353.641C796.709 320.06 805.716 274.74 803.077 222.59C800.689 175.374 789.086 124.711 769.398 73.8753C749.71 124.705 738.106 175.368 735.719 222.589C733.079 274.74 742.086 320.06 761.764 353.641L760.621 354.312C760.621 354.312 760.621 354.312 760.621 354.307L760.61 354.307C745.407 328.368 736.534 295.48 734.431 257.894C733.535 273.838 731.432 288.934 728.133 303.015C728.09 303.208 728.047 303.407 727.999 303.6C727.913 303.966 727.817 304.331 727.731 304.696C723.267 323.127 716.755 339.791 708.268 354.291L708.316 354.317C708.144 354.613 704.046 361.53 700.055 363.732L699.518 364L698.982 363.732C694.991 361.53 690.908 354.613 690.736 354.317L691.879 353.646C691.917 353.716 695.876 360.418 699.518 362.507C703.043 360.483 706.873 354.151 707.157 353.673L707.109 353.646C726.787 320.066 735.799 274.751 733.16 222.595C732.709 213.664 731.926 204.615 730.826 195.464C726.143 156.615 715.66 115.941 699.964 75.1427C699.803 75.1695 699.642 75.1857 699.47 75.1857C699.298 75.1857 699.137 75.1695 698.976 75.1427C683.28 115.941 672.797 156.61 668.114 195.464C667.797 198.079 667.508 200.684 667.245 203.283C666.982 205.882 666.746 208.471 666.537 211.049C666.22 214.921 665.968 218.766 665.775 222.595C663.136 274.751 672.143 320.066 691.825 353.646L690.683 354.317C681.777 339.114 675.045 321.521 670.571 302.005C667.406 288.214 665.378 273.457 664.504 257.894C662.395 295.464 653.533 328.341 638.34 354.285L638.389 354.312C638.217 354.607 634.118 361.524 630.127 363.726L629.591 363.995L629.054 363.726C625.063 361.524 620.98 354.607 620.809 354.312L621.951 353.641C621.989 353.711 625.948 360.413 629.591 362.502C633.099 360.483 636.919 354.189 637.224 353.673L637.165 353.635C656.843 320.055 665.85 274.735 663.211 222.584C660.823 175.368 649.22 124.705 629.532 73.8699C609.843 124.7 598.24 175.363 595.853 222.584C593.213 274.735 602.22 320.055 621.898 353.635L620.755 354.307C620.755 354.307 620.755 354.307 620.755 354.301L620.744 354.301C605.541 328.363 596.668 295.475 594.565 257.888C593.669 273.833 591.566 288.929 588.267 303.01C588.224 303.203 588.181 303.402 588.133 303.595C588.047 303.96 587.951 304.325 587.865 304.691C583.401 323.121 576.894 339.78 568.407 354.274L568.466 354.312C568.295 354.607 564.196 361.524 560.205 363.726L559.668 363.995L559.132 363.726C555.141 361.524 551.058 354.607 550.886 354.312L552.029 353.641C552.067 353.711 556.026 360.413 559.668 362.502C563.177 360.488 566.991 354.194 567.302 353.673L567.238 353.635C586.915 320.055 595.928 274.74 593.288 222.584C592.838 213.653 592.054 204.604 590.955 195.453C586.223 156.197 575.569 115.082 559.599 73.8538C543.628 115.082 532.974 156.197 528.242 195.453C527.926 198.069 527.636 200.673 527.373 203.273C527.11 205.872 526.874 208.46 526.665 211.038C526.349 214.91 526.097 218.755 525.903 222.584C523.264 274.74 532.271 320.055 551.954 353.635L550.811 354.307C541.906 339.103 535.173 321.51 530.699 301.995C527.534 288.204 525.506 273.446 524.632 257.883C522.524 295.454 513.661 328.325 498.469 354.269L498.533 354.307C498.362 354.602 494.263 361.519 490.272 363.721L489.735 363.989L489.199 363.721C485.207 361.519 481.125 354.602 480.953 354.307L482.096 353.635C482.134 353.705 486.093 360.407 489.735 362.496C493.233 360.488 497.031 354.237 497.364 353.678L497.289 353.635C516.966 320.055 525.973 274.735 523.334 222.584C520.952 175.476 509.391 124.936 489.789 74.2243C489.746 74.2243 489.703 74.2404 489.655 74.2404C489.606 74.2404 489.569 74.2297 489.521 74.2243C469.913 124.936 458.358 175.476 455.976 222.584C453.336 274.735 462.344 320.055 482.021 353.635L480.878 354.307C480.878 354.307 480.878 354.307 480.878 354.301L480.868 354.301C465.664 328.363 456.791 295.475 454.688 257.888C453.792 273.833 451.689 288.929 448.39 303.01C448.347 303.203 448.304 303.402 448.256 303.595C448.17 303.96 448.074 304.325 447.988 304.691C443.524 323.116 437.017 339.775 428.536 354.269L428.611 354.312C428.439 354.607 424.341 361.524 420.349 363.726L419.813 363.995L419.276 363.726C415.285 361.524 411.203 354.607 411.031 354.312L412.174 353.641C412.211 353.711 416.17 360.413 419.813 362.502C423.305 360.493 427.103 354.248 427.441 353.684L427.366 353.641C447.044 320.06 456.056 274.746 453.417 222.589C453.224 218.76 452.972 214.915 452.655 211.043C452.446 208.466 452.21 205.872 451.947 203.278C451.684 200.684 451.394 198.074 451.078 195.459C446.346 156.202 435.692 115.087 419.722 73.8592C403.751 115.087 393.097 156.202 388.366 195.459C388.049 198.074 387.759 200.679 387.497 203.278C387.234 205.877 386.998 208.466 386.788 211.043C386.472 214.915 386.22 218.76 386.027 222.589C383.387 274.746 392.394 320.06 412.077 353.641L410.935 354.312C402.437 339.807 395.924 323.137 391.456 304.691C391.364 304.325 391.273 303.966 391.187 303.595C391.155 303.455 391.123 303.316 391.091 303.181C387.77 289.052 385.651 273.897 384.755 257.888C382.647 295.454 373.79 328.325 358.597 354.264L358.672 354.307C358.501 354.602 354.402 361.519 350.411 363.721L349.875 363.989L349.338 363.721C345.347 361.519 341.264 354.602 341.093 354.307L342.235 353.635C342.273 353.705 346.232 360.407 349.875 362.496C353.356 360.499 357.138 354.285 357.498 353.684L357.412 353.63C377.089 320.05 386.096 274.73 383.457 222.579C381.091 175.793 369.67 125.623 350.309 75.2608C350.137 75.2876 349.96 75.3091 349.778 75.3091C349.596 75.3091 349.419 75.293 349.247 75.2608C329.886 125.623 318.465 175.793 316.099 222.579C313.46 274.73 322.467 320.05 342.144 353.63L341.001 354.301C341.001 354.301 341.001 354.301 341.001 354.296L340.991 354.296C325.787 328.357 316.914 295.47 314.811 257.883C313.937 273.446 311.904 288.204 308.744 301.995C304.275 321.489 297.553 339.06 288.664 354.253L288.75 354.307C288.579 354.602 284.48 361.519 280.489 363.721L279.952 363.989L279.416 363.721C275.424 361.519 271.342 354.602 271.17 354.307L272.313 353.635C272.351 353.705 276.31 360.407 279.952 362.496C283.434 360.499 287.21 354.296 287.575 353.684L287.484 353.63C307.162 320.05 316.174 274.735 313.535 222.579C313.342 218.75 313.089 214.905 312.773 211.033C312.564 208.455 312.328 205.861 312.065 203.267C311.802 200.673 311.512 198.063 311.196 195.448C306.464 156.191 295.81 115.076 279.84 73.8484C265.462 110.957 255.398 147.975 250.082 183.628C249.691 186.265 249.32 188.896 248.977 191.522C247.609 202.016 246.665 212.38 246.15 222.584C246.112 223.293 246.091 223.991 246.059 224.695C243.768 275.959 252.786 320.511 272.2 353.635L271.058 354.307C262.56 339.807 256.047 323.132 251.579 304.685C251.488 304.32 251.396 303.96 251.311 303.59C251.262 303.396 251.225 303.198 251.176 303.004C247.883 288.923 245.774 273.827 244.878 257.883C242.77 295.443 233.913 328.314 218.726 354.253L218.817 354.307C218.645 354.602 214.547 361.519 210.556 363.721L210.019 363.989L209.483 363.721C205.491 361.519 201.409 354.602 201.237 354.307L202.38 353.635C202.417 353.705 206.377 360.407 210.019 362.496C213.49 360.504 217.251 354.339 217.637 353.694L217.535 353.635C237.212 320.055 246.22 274.735 243.58 222.584C241.193 175.368 229.589 124.705 209.901 73.8699C190.213 124.7 178.609 175.363 176.222 222.584C173.583 274.735 182.59 320.055 202.267 353.635L201.125 354.307C201.125 354.307 201.125 354.307 201.125 354.301L201.114 354.301C185.911 328.363 177.038 295.475 174.935 257.888C174.06 273.451 172.027 288.209 168.867 302C164.399 321.489 157.682 339.06 148.793 354.248L148.895 354.307C148.723 354.602 144.625 361.519 140.633 363.721L140.097 363.989L139.56 363.721C135.569 361.519 131.487 354.602 131.315 354.307L132.458 353.635C132.495 353.705 136.454 360.407 140.097 362.496C143.562 360.504 147.323 354.344 147.715 353.694L147.613 353.635C167.29 320.055 176.303 274.74 173.663 222.584C173.47 218.755 173.218 214.91 172.901 211.038C172.692 208.46 172.456 205.866 172.193 203.272C171.931 200.679 171.641 198.069 171.324 195.453C166.593 156.196 155.939 115.082 139.968 73.8538C123.998 115.082 113.344 156.196 108.612 195.453C107.507 204.604 106.729 213.659 106.278 222.584C103.639 274.74 112.646 320.055 132.329 353.635L131.186 354.307C122.689 339.807 116.176 323.132 111.707 304.685C111.616 304.32 111.525 303.96 111.439 303.59C111.391 303.396 111.353 303.198 111.305 303.004C108.011 288.923 105.903 273.827 105.007 257.883C102.904 295.443 94.0417 328.304 78.8598 354.242L78.9617 354.301C78.7901 354.597 74.6916 361.514 70.7003 363.715L70.1638 363.984L69.6273 363.715C65.6361 361.514 61.5535 354.597 61.3819 354.301L62.5246 353.63C62.5622 353.7 66.5212 360.402 70.1638 362.491C73.6186 360.509 77.3631 354.382 77.7762 353.694L77.6635 353.63C97.3409 320.05 106.348 274.73 103.709 222.579C101.322 175.363 89.7177 124.7 70.0296 73.8645C50.3415 124.694 38.738 175.358 36.3507 222.579C33.7113 274.73 42.7185 320.05 62.3958 353.63L61.2532 354.301C61.2532 354.301 61.2532 354.301 61.2532 354.296L61.2425 354.296C46.0393 328.357 37.1661 295.47 35.0632 257.883C32.9603 295.437 24.1033 328.298 8.92146 354.237L9.03938 354.307C8.86775 354.602 4.76936 361.519 0.778029 363.721L0.24153 363.989L0.0966321 363.919L0.0966323 362.41C0.144972 362.437 0.193312 362.469 0.24153 362.496C3.69636 360.515 7.44075 354.393 7.85384 353.7L7.74129 353.63C27.4187 320.05 36.4312 274.735 33.7918 222.579C31.4046 175.352 19.7955 124.684 0.102029 73.843L0.102029 70.2127C9.69932 45.8477 21.1476 21.4558 34.3122 -2.5924C28.1001 -13.913 21.5068 -25.153 14.5436 -36.2856C9.86571 -43.7611 5.04284 -51.1238 0.10204 -58.3683L0.10204 -60.742C10.9171 -76.4984 22.3223 -91.691 34.2102 -106.169C23.2128 -119.52 11.813 -132.258 0.102048 -144.277L0.102048 -146.173L-2.95729e-06 -146.173ZM70.9095 -62.1436C73.1842 -65.4356 75.4801 -68.7061 77.803 -71.9498C83.6129 -80.0535 89.5785 -87.9962 95.678 -95.7509C98.4408 -99.2577 101.23 -102.727 104.047 -106.159C93.6179 -118.816 82.8243 -130.921 71.7465 -142.392C71.21 -142.016 70.5609 -141.796 69.8582 -141.796C69.1984 -141.796 68.5867 -141.989 68.0663 -142.327C57.0099 -130.878 46.2377 -118.795 35.8303 -106.159C38.6467 -102.727 41.4416 -99.2631 44.1991 -95.7509C50.3041 -87.9962 56.2696 -80.0535 62.0741 -71.9498C64.397 -68.7061 66.6984 -65.441 68.9675 -62.1436C69.2894 -61.6764 69.6112 -61.1984 69.9331 -60.7312C70.255 -61.2038 70.5769 -61.6764 70.8988 -62.1436L70.9095 -62.1436ZM70.7432 -59.5551C75.802 -52.1495 80.732 -44.6257 85.512 -36.9891C92.3358 -26.0874 98.8002 -15.073 104.905 -3.98868C111.01 -15.073 117.474 -26.0874 124.298 -36.9891C129.078 -44.6257 134.008 -52.1548 139.067 -59.5551C128.241 -75.3599 116.814 -90.5954 104.9 -105.117C95.9354 -94.1828 87.234 -82.8515 78.8652 -71.1711C76.1185 -67.3367 73.4095 -63.4593 70.7325 -59.5551L70.7432 -59.5551ZM104.921 -177.202C93.9452 -167.767 83.1516 -157.654 72.5994 -146.962C72.9589 -146.43 73.1681 -145.791 73.1681 -145.104C73.1681 -144.465 72.9857 -143.869 72.6692 -143.364C83.7257 -131.914 94.503 -119.837 104.916 -107.206C109.288 -112.512 113.724 -117.726 118.22 -122.833C119.502 -124.289 120.79 -125.739 122.083 -127.178C127.624 -133.354 133.257 -139.368 138.96 -145.222C127.86 -156.559 116.493 -167.251 104.921 -177.202ZM105.78 -106.169C117.667 -91.691 129.073 -76.4984 139.888 -60.742C150.703 -76.4984 162.108 -91.691 173.996 -106.169C173.315 -106.996 172.633 -107.829 171.947 -108.65C161.588 -121.099 150.874 -132.999 139.888 -144.277C128.177 -132.258 116.777 -119.52 105.78 -106.169ZM212.085 -57.3963C213.259 -55.6617 214.44 -53.9324 215.598 -52.1817C218.93 -47.1658 222.197 -42.1017 225.4 -36.9838C227.905 -32.9775 230.367 -28.9552 232.781 -24.9221C235.195 -20.889 237.556 -16.8398 239.868 -12.7798C240.64 -11.4265 241.408 -10.0732 242.164 -8.71989C243.049 -7.14102 243.924 -5.56753 244.793 -3.98329C250.898 -15.0676 257.362 -26.0821 264.186 -36.9838C268.966 -44.6203 273.896 -52.1495 278.954 -59.5497C268.129 -75.3545 256.702 -90.59 244.787 -105.111C240.791 -100.235 236.842 -95.2837 232.958 -90.2517C225.738 -80.902 218.737 -71.2838 211.95 -61.4562C212.455 -60.8977 212.766 -60.162 212.766 -59.351C212.766 -58.6099 212.508 -57.9279 212.079 -57.3909L212.085 -57.3963ZM207.562 -61.6871C204.225 -66.515 200.84 -71.2892 197.396 -76.0043C192.708 -82.4218 187.928 -88.7319 183.051 -94.9239C180.616 -98.0172 178.159 -101.084 175.675 -104.123C175.401 -104.456 175.128 -104.784 174.854 -105.117C162.945 -90.5954 151.518 -75.3599 140.687 -59.5551C145.746 -52.1495 150.676 -44.6257 155.456 -36.9891C162.28 -26.0874 168.744 -15.073 174.849 -3.98868C180.954 -15.073 187.418 -26.0874 194.242 -36.9891C198.512 -43.8094 202.906 -50.533 207.401 -57.1707C206.849 -57.7346 206.505 -58.5079 206.505 -59.3618C206.505 -60.2908 206.908 -61.1179 207.552 -61.6925L207.562 -61.6871ZM174.854 -177.202C163.283 -167.251 151.91 -156.559 140.816 -145.222C146.518 -139.374 152.146 -133.359 157.693 -127.178C160.278 -124.299 162.843 -121.383 165.386 -118.44C167.929 -115.497 170.455 -112.517 172.961 -109.504C173.594 -108.742 174.221 -107.974 174.854 -107.206C185.83 -120.519 197.208 -133.225 208.893 -145.222C197.793 -156.559 186.426 -167.251 174.854 -177.202ZM175.718 -106.159C179.779 -101.212 183.786 -96.1859 187.735 -91.0787C188.942 -89.5106 190.149 -87.9425 191.345 -86.3583C197.284 -78.523 203.072 -70.5051 208.705 -62.3477C209 -62.439 209.316 -62.4927 209.644 -62.4927C210.078 -62.4927 210.497 -62.4014 210.872 -62.2403C221.376 -77.4597 232.427 -92.1421 243.934 -106.164C232.937 -119.514 221.537 -132.253 209.826 -144.272C198.115 -132.253 186.715 -119.509 175.718 -106.164L175.718 -106.159ZM244.803 -177.202C233.232 -167.256 221.859 -156.559 210.765 -145.222C222.454 -133.23 233.827 -120.519 244.803 -107.206C255.779 -120.519 267.158 -133.225 278.842 -145.222C267.742 -156.559 256.375 -167.251 244.803 -177.202ZM245.662 -106.169C257.55 -91.691 268.955 -76.4984 279.77 -60.7419C290.585 -76.4984 301.99 -91.691 313.878 -106.169C302.881 -119.52 291.481 -132.258 279.77 -144.277C268.059 -132.258 256.659 -119.52 245.662 -106.169ZM349.714 68.6876C349.912 68.6876 350.105 68.709 350.293 68.7413C359.772 44.8596 371.022 20.9617 383.929 -2.60849C378.463 -12.565 372.706 -22.4678 366.655 -32.2794C365.829 -33.6166 365.003 -34.9484 364.171 -36.2802C359.488 -43.7557 354.665 -51.1237 349.719 -58.379C344.773 -51.1237 339.95 -43.7557 335.267 -36.2802C334.435 -34.9484 333.604 -33.6112 332.783 -32.2794C326.732 -22.4625 320.975 -12.565 315.509 -2.60849C328.416 20.9617 339.666 44.8596 349.145 68.7413C349.333 68.709 349.526 68.6876 349.724 68.6876L349.714 68.6876ZM351.516 -142.392C351.007 -142.032 350.384 -141.817 349.714 -141.817C349.043 -141.817 348.421 -142.032 347.911 -142.392C336.833 -130.921 326.034 -118.816 315.605 -106.153C327.493 -91.6695 338.899 -76.4823 349.714 -60.7258C360.529 -76.4823 371.934 -91.6748 383.822 -106.153C373.393 -118.816 362.599 -130.921 351.516 -142.392ZM372.851 -90.2571C365.164 -80.3059 357.712 -70.054 350.518 -59.5497C355.577 -52.1441 360.507 -44.6203 365.287 -36.9837C372.111 -26.082 378.575 -15.0676 384.68 -3.98327C390.785 -15.0676 397.249 -26.082 404.073 -36.9837C408.853 -44.6203 413.783 -52.1495 418.842 -59.5497C408.016 -75.3545 396.59 -90.59 384.675 -105.111C380.678 -100.235 376.73 -95.2837 372.846 -90.2517L372.851 -90.2571ZM334.14 -36.9838C338.92 -44.6203 343.85 -52.1495 348.909 -59.5497C341.715 -70.0487 334.264 -80.3005 326.576 -90.2571C322.692 -95.289 318.744 -100.24 314.747 -105.117C302.838 -90.5954 291.411 -75.3599 280.58 -59.5551C285.639 -52.1495 290.569 -44.6257 295.349 -36.9891C302.172 -26.0874 308.637 -15.073 314.742 -3.98867C320.847 -15.073 327.311 -26.0874 334.135 -36.9891L334.14 -36.9838ZM314.736 -177.202C303.165 -167.251 291.792 -156.559 280.698 -145.222C292.387 -133.23 303.76 -120.519 314.736 -107.206C325.154 -119.842 335.937 -131.931 347.005 -143.38C346.742 -143.842 346.586 -144.374 346.586 -144.943C346.586 -145.641 346.817 -146.285 347.208 -146.806C336.608 -157.552 325.766 -167.713 314.742 -177.197L314.736 -177.202ZM384.691 -177.202C373.667 -167.724 362.819 -157.558 352.224 -146.812C352.61 -146.291 352.847 -145.646 352.847 -144.948C352.847 -144.379 352.691 -143.847 352.428 -143.385C363.495 -131.931 374.278 -119.847 384.696 -107.211C395.672 -120.524 407.051 -133.23 418.735 -145.227C407.635 -156.564 396.268 -167.256 384.696 -177.208L384.691 -177.202ZM385.549 -106.169C397.437 -91.6909 408.842 -76.4984 419.657 -60.7419C430.472 -76.4984 441.878 -91.6909 453.766 -106.169C442.768 -119.52 431.368 -132.258 419.657 -144.277C407.946 -132.258 396.547 -119.52 385.549 -106.169ZM442.859 -24.5193C446.92 -17.7097 450.847 -10.8626 454.635 -3.98865C455.504 -5.56753 456.378 -7.14637 457.263 -8.72524C458.025 -10.0786 458.792 -11.4372 459.559 -12.7852C461.872 -16.8451 464.237 -20.889 466.646 -24.9274C469.06 -28.9605 471.517 -32.9829 474.022 -36.9891C477.225 -42.107 480.492 -47.1766 483.823 -52.187C484.998 -53.9539 486.189 -55.7046 487.38 -57.4607C486.817 -58.0246 486.468 -58.8086 486.468 -59.6679C486.468 -60.468 486.774 -61.1984 487.268 -61.7515C480.546 -71.4825 473.609 -81.004 466.458 -90.2624C462.574 -95.2944 458.626 -100.246 454.629 -105.122C442.72 -90.6008 431.293 -75.3653 420.462 -59.5605C425.521 -52.1548 430.451 -44.6311 435.231 -36.9945C435.274 -36.9247 435.317 -36.8602 435.36 -36.7904L444.249 -55.4683L442.854 -24.5247L442.859 -24.5193ZM489.601 69.8314C489.649 69.8314 489.692 69.8422 489.741 69.8475C499.311 45.6007 510.711 21.3323 523.811 -2.60309C518.345 -12.5596 512.588 -22.4624 506.537 -32.274C505.711 -33.6112 504.885 -34.943 504.053 -36.2749C499.724 -43.1918 495.266 -50.0067 490.712 -56.7357C490.368 -56.6068 489.993 -56.5316 489.606 -56.5316C489.22 -56.5316 488.845 -56.6068 488.501 -56.7357C483.942 -50.0121 479.489 -43.1918 475.16 -36.2749C474.328 -34.943 473.497 -33.6058 472.676 -32.274C466.624 -22.4571 460.868 -12.5596 455.402 -2.60309C468.508 21.3323 479.907 45.6007 489.472 69.8475C489.521 69.8475 489.564 69.8314 489.612 69.8314L489.601 69.8314ZM627.826 -60.7902C626.56 -62.6323 625.294 -64.4743 624.006 -66.3002C620.567 -71.1925 617.07 -76.0258 613.518 -80.8C611.152 -83.9792 608.76 -87.1369 606.346 -90.2624C602.462 -95.2944 598.513 -100.246 594.517 -105.122C582.607 -90.6008 571.181 -75.3652 560.35 -59.5605C565.408 -52.1548 570.338 -44.631 575.118 -36.9945C581.942 -26.0928 588.406 -15.0783 594.511 -3.994C600.616 -15.0783 607.081 -26.0928 613.904 -36.9945C618.373 -44.1316 622.976 -51.1667 627.686 -58.0997C627.434 -58.4595 627.278 -58.8945 627.278 -59.3671C627.278 -59.9149 627.488 -60.4143 627.82 -60.801L627.826 -60.7902ZM593.648 -106.169C582.951 -119.155 571.867 -131.56 560.484 -143.294C560.173 -143.128 559.824 -143.026 559.448 -143.026C559.121 -143.026 558.81 -143.101 558.526 -143.235C547.893 -132.269 537.512 -120.723 527.47 -108.656C526.783 -107.834 526.107 -107.002 525.421 -106.175C537.309 -91.6963 548.719 -76.5037 559.529 -60.7473C570.344 -76.5037 581.749 -91.6963 593.637 -106.175L593.648 -106.169ZM524.568 -105.117C524.294 -104.784 524.021 -104.456 523.747 -104.123C521.268 -101.089 518.811 -98.0225 516.371 -94.9239C511.5 -88.7319 506.714 -82.4218 502.026 -76.0043C498.603 -71.316 495.229 -66.5633 491.913 -61.7623C492.418 -61.2091 492.723 -60.4734 492.723 -59.6679C492.723 -58.8086 492.375 -58.0299 491.811 -57.4607C496.371 -50.7317 500.835 -43.906 505.164 -36.9891C511.988 -26.0874 518.452 -15.0729 524.557 -3.98865C530.662 -15.0729 537.126 -26.0874 543.95 -36.9891C548.73 -44.6257 553.66 -52.1548 558.719 -59.5551C547.893 -75.3599 536.466 -90.5954 524.552 -105.117L524.568 -105.117ZM455.917 -176.074C455.541 -175.768 455.064 -175.575 454.538 -175.575C454.055 -175.575 453.61 -175.736 453.245 -175.999C442.151 -166.392 431.24 -156.102 420.58 -145.217C432.27 -133.225 443.643 -120.513 454.619 -107.2C465.594 -120.513 476.973 -133.219 488.657 -145.217C477.976 -156.129 467.032 -166.44 455.911 -176.069L455.917 -176.074ZM455.493 -106.159C466.925 -92.2333 477.906 -77.6476 488.346 -62.5356C488.732 -62.7021 489.151 -62.7987 489.601 -62.7987C490.052 -62.7987 490.47 -62.7021 490.856 -62.5356C496.452 -70.634 502.192 -78.5874 508.082 -86.3582C509.279 -87.9371 510.486 -89.5106 511.693 -91.0787C515.636 -96.1859 519.648 -101.212 523.709 -106.159C512.712 -119.509 501.312 -132.247 489.601 -144.266C477.89 -132.247 466.49 -119.504 455.493 -106.159ZM524.573 -177.202C513.002 -167.256 501.629 -156.559 490.535 -145.222C502.224 -133.23 513.597 -120.519 524.573 -107.206C525.206 -107.974 525.834 -108.742 526.467 -109.504C528.972 -112.517 531.499 -115.492 534.042 -118.44C536.584 -121.389 539.154 -124.299 541.734 -127.178C546.933 -132.972 552.211 -138.617 557.555 -144.126C557.367 -144.449 557.254 -144.819 557.254 -145.222C557.254 -145.625 557.367 -145.979 557.544 -146.296C546.783 -157.23 535.769 -167.562 524.568 -177.197L524.573 -177.202ZM594.506 -177.202C583.267 -167.536 572.216 -157.166 561.423 -146.189C561.567 -145.899 561.653 -145.571 561.653 -145.227C561.653 -144.884 561.562 -144.545 561.412 -144.25C565.462 -140.072 569.48 -135.819 573.45 -131.479C576.052 -128.633 578.638 -125.755 581.202 -122.844C585.697 -117.737 590.134 -112.522 594.506 -107.216C605.482 -120.529 616.86 -133.236 628.545 -145.233C617.445 -156.569 606.078 -167.262 594.506 -177.213L594.506 -177.202ZM595.375 -106.158C598.192 -102.727 600.987 -99.263 603.744 -95.7509C609.849 -87.9962 615.814 -80.0535 621.619 -71.9497C624.097 -68.4966 626.538 -65.0059 628.952 -61.4884C629.124 -61.5313 629.296 -61.5582 629.478 -61.5582C629.66 -61.5582 629.832 -61.5313 629.998 -61.4884C630.148 -61.7086 630.293 -61.9234 630.444 -62.1436C632.718 -65.4356 635.014 -68.7061 637.337 -71.9497C643.147 -80.0535 649.112 -87.9962 655.212 -95.7509C657.975 -99.2577 660.764 -102.727 663.581 -106.158C652.583 -119.509 641.184 -132.247 629.473 -144.266C617.762 -132.247 606.362 -119.504 595.364 -106.158L595.375 -106.158ZM699.427 68.9078C699.599 68.9078 699.765 68.9239 699.931 68.9507C709.089 45.8531 719.909 22.7393 732.275 -0.079053C731.62 -0.653669 731.207 -1.49144 731.207 -2.43124C731.207 -3.41937 731.663 -4.29472 732.377 -4.86934C726.534 -15.4166 720.365 -25.8994 713.869 -36.2802C709.191 -43.7557 704.368 -51.1183 699.427 -58.3629C694.486 -51.113 689.664 -43.7503 684.986 -36.2802C678.022 -25.1476 671.429 -13.9076 665.217 -2.58698C666.327 -0.55701 667.433 1.47833 668.522 3.51367C672.159 10.3232 675.657 17.1542 679.015 24.0067C679.685 25.3762 680.351 26.7456 681.01 28.1204C682.33 30.8646 683.628 33.6088 684.905 36.353C688.73 44.5911 692.351 52.8506 695.758 61.1101C696.836 63.7254 697.887 66.3408 698.928 68.9561C699.094 68.9292 699.261 68.9131 699.432 68.9131L699.427 68.9078ZM701.004 -142.639C700.543 -142.365 700.001 -142.209 699.427 -142.209C698.853 -142.209 698.311 -142.37 697.85 -142.639C686.692 -131.098 675.823 -118.918 665.319 -106.169C677.207 -91.6909 688.612 -76.4984 699.427 -60.7419C710.242 -76.4984 721.647 -91.6909 733.535 -106.169C723.037 -118.913 712.163 -131.098 701.004 -142.639ZM700.237 -59.5551C705.296 -52.1494 710.226 -44.6256 715.006 -36.9891C721.524 -26.5707 727.715 -16.0557 733.578 -5.46545C733.82 -5.52452 734.072 -5.56212 734.329 -5.56212C734.635 -5.56212 734.925 -5.51915 735.204 -5.4386C741.073 -16.0342 747.269 -26.56 753.792 -36.9891C758.572 -44.6256 763.502 -52.1548 768.561 -59.5551C765.884 -63.4593 763.175 -67.3366 760.428 -71.171C752.059 -82.8514 743.363 -94.1827 734.394 -105.117C722.484 -90.5954 711.058 -75.3598 700.226 -59.5551L700.237 -59.5551ZM683.843 -36.9837C688.623 -44.6203 693.553 -52.1494 698.612 -59.5497C687.786 -75.3545 676.359 -90.59 664.444 -105.111C655.48 -94.1774 646.784 -82.846 638.41 -71.1657C635.953 -67.734 633.534 -64.2702 631.13 -60.7849C631.463 -60.3982 631.672 -59.9042 631.672 -59.351C631.672 -58.8838 631.522 -58.4488 631.27 -58.089C631.479 -57.7829 631.688 -57.4821 631.892 -57.176C636.382 -50.5384 640.77 -43.804 645.041 -36.9784C648.383 -31.6349 651.645 -26.2646 654.815 -20.8782C655.609 -19.5302 656.398 -18.1823 657.175 -16.829C659.52 -12.7798 661.821 -8.71448 664.069 -4.6438C664.192 -4.42362 664.31 -4.19806 664.434 -3.97788C670.539 -15.0622 677.003 -26.0766 683.827 -36.9783L683.843 -36.9837ZM664.461 -177.202C652.889 -167.256 641.516 -156.559 630.422 -145.222C642.112 -133.23 653.485 -120.519 664.461 -107.206C668.833 -112.512 673.269 -117.726 677.765 -122.833C679.047 -124.289 680.334 -125.739 681.627 -127.178C686.643 -132.763 691.729 -138.214 696.874 -143.53C696.514 -144.041 696.3 -144.658 696.3 -145.329C696.3 -145.931 696.471 -146.495 696.766 -146.967C686.219 -157.654 675.431 -167.761 664.461 -177.191L664.461 -177.202ZM734.394 -177.202C723.423 -167.772 712.635 -157.66 702.088 -146.978C702.383 -146.5 702.555 -145.942 702.555 -145.34C702.555 -144.669 702.34 -144.051 701.981 -143.541C707.125 -138.219 712.211 -132.774 717.227 -127.189C718.52 -125.749 719.807 -124.299 721.089 -122.844C725.585 -117.737 730.021 -112.522 734.394 -107.216C745.37 -120.529 756.748 -133.236 768.432 -145.233C757.333 -156.569 745.965 -167.262 734.394 -177.213L734.394 -177.202ZM735.263 -106.158C738.079 -102.727 740.874 -99.263 743.631 -95.7509C749.736 -87.9962 755.702 -80.0535 761.506 -71.9497C763.829 -68.706 766.131 -65.4409 768.4 -62.1435C768.722 -61.6763 769.044 -61.1984 769.366 -60.7312C769.687 -61.2037 770.009 -61.6763 770.331 -62.1435C772.606 -65.4355 774.902 -68.706 777.225 -71.9497C783.035 -80.0535 789 -87.9961 795.1 -95.7509C797.862 -99.2577 800.652 -102.727 803.468 -106.158C792.471 -119.509 781.071 -132.247 769.36 -144.266C757.649 -132.247 746.249 -119.504 735.252 -106.158L735.263 -106.158ZM770.17 -59.5551C775.229 -52.1494 780.159 -44.6256 784.939 -36.9891C791.763 -26.0874 798.227 -15.0729 804.332 -3.98862C810.437 -15.0729 816.901 -26.0874 823.725 -36.9891C828.505 -44.6256 833.435 -52.1548 838.494 -59.5551C827.668 -75.3598 816.241 -90.5954 804.327 -105.117C795.362 -94.1827 786.666 -82.8514 778.292 -71.171C775.546 -67.3366 772.836 -63.4593 770.159 -59.5551L770.17 -59.5551ZM804.343 -177.202C792.771 -167.256 781.398 -156.559 770.304 -145.222C781.994 -133.23 793.367 -120.519 804.343 -107.206C808.715 -112.512 813.151 -117.726 817.647 -122.833C818.929 -124.289 820.217 -125.739 821.509 -127.178C827.051 -133.354 832.684 -139.368 838.387 -145.222C827.287 -156.559 815.92 -167.251 804.348 -177.202L804.343 -177.202ZM805.201 -106.169C817.089 -91.6909 828.494 -76.4983 839.309 -60.7419C849.631 -75.7841 860.499 -90.3 871.803 -104.182C871.4 -104.708 871.159 -105.369 871.159 -106.083C871.159 -106.798 871.422 -107.512 871.856 -108.049C861.342 -120.712 850.473 -132.827 839.309 -144.277C827.598 -132.258 816.199 -119.52 805.201 -106.169ZM873.825 -4.81563C873.975 -4.84785 874.126 -4.86397 874.286 -4.86397C874.447 -4.86397 874.598 -4.84785 874.743 -4.81563C876.963 -8.83261 879.227 -12.8389 881.545 -16.8344C882.328 -18.1823 883.117 -19.5356 883.905 -20.8836C887.076 -26.2753 890.337 -31.6456 893.68 -36.9837C897.95 -43.8093 902.338 -50.5437 906.828 -57.1814C907.365 -57.9762 907.907 -58.7602 908.448 -59.5551C905.771 -63.4593 903.062 -67.3366 900.316 -71.171C892.403 -82.2123 884.195 -92.9368 875.746 -103.312C875.311 -103.081 874.812 -102.947 874.281 -102.947C873.75 -102.947 873.257 -103.081 872.817 -103.312C861.433 -89.3333 850.494 -74.71 840.114 -59.5551C845.173 -52.1494 850.103 -44.6256 854.883 -36.9891C861.535 -26.3559 867.849 -15.6207 873.814 -4.81563L873.825 -4.81563ZM874.276 -177.202C862.704 -167.251 851.331 -156.559 840.237 -145.222C845.94 -139.374 851.567 -133.359 857.114 -127.178C858.407 -125.739 859.695 -124.289 860.977 -122.833C865 -118.263 868.97 -113.602 872.897 -108.876C873.316 -109.085 873.793 -109.209 874.292 -109.209C874.791 -109.209 875.258 -109.091 875.676 -108.881C886.223 -121.582 897.129 -133.735 908.32 -145.222C897.22 -156.559 885.853 -167.251 874.281 -177.202L874.276 -177.202ZM876.717 -108.049C877.151 -107.512 877.414 -106.83 877.414 -106.083C877.414 -105.337 877.167 -104.703 876.76 -104.171C879.029 -101.39 881.282 -98.5864 883.514 -95.7508C889.619 -87.9961 895.584 -80.0535 901.389 -71.9497C903.711 -68.706 906.013 -65.4409 908.282 -62.1435C908.604 -61.6763 908.926 -61.1984 909.248 -60.7311C911.833 -64.5011 914.451 -68.2442 917.107 -71.9497C922.917 -80.0535 928.882 -87.9961 934.982 -95.7508C937.744 -99.2576 940.534 -102.727 943.35 -106.158C932.353 -119.509 920.953 -132.247 909.242 -144.266C898.084 -132.817 887.215 -120.707 876.706 -108.049L876.717 -108.049ZM979.197 68.6285C979.406 68.6285 979.61 68.65 979.803 68.6876C989.277 44.8274 1000.52 20.9564 1013.41 -2.59232C1007.19 -13.9129 1000.6 -25.1529 993.638 -36.2855C989.357 -43.1219 984.953 -49.8617 980.452 -56.5155C980.066 -56.3544 979.642 -56.2684 979.197 -56.2684C978.752 -56.2684 978.328 -56.3597 977.941 -56.5155C973.441 -49.867 969.031 -43.1273 964.755 -36.2855C957.792 -25.1529 951.199 -13.9129 944.987 -2.59232C957.878 20.9564 969.117 44.8274 978.591 68.6876C978.789 68.65 978.993 68.6285 979.197 68.6285ZM981.557 -57.2566C986.069 -50.592 990.489 -43.8362 994.776 -36.9837C1001.6 -26.082 1008.06 -15.0675 1014.17 -3.98322C1020.27 -15.0675 1026.74 -26.082 1033.56 -36.9837C1038.34 -44.6203 1043.27 -52.1494 1048.33 -59.5497C1047.91 -60.1619 1047.5 -60.7741 1047.08 -61.3809C1043.68 -66.3109 1040.22 -71.1871 1036.71 -75.9989C1032.02 -82.4164 1027.24 -88.7265 1022.36 -94.9184C1019.92 -98.0117 1017.47 -101.078 1014.98 -104.118C1014.71 -104.451 1014.44 -104.778 1014.16 -105.111C1002.83 -91.2935 991.943 -76.8259 981.584 -61.8374C982.147 -61.2467 982.491 -60.4465 982.491 -59.5658C982.491 -58.6851 982.131 -57.8527 981.546 -57.2512L981.557 -57.2566ZM963.613 -36.9837C967.904 -43.8362 972.319 -50.592 976.831 -57.2566C976.246 -57.8527 975.887 -58.669 975.887 -59.5712C975.887 -60.4734 976.236 -61.2521 976.793 -61.8428C966.434 -76.8313 955.55 -91.2989 944.214 -105.117C940.218 -100.24 936.269 -95.289 932.385 -90.257C929.971 -87.1315 927.579 -83.9792 925.213 -80.7946C921.661 -76.0204 918.164 -71.1871 914.725 -66.2948C913.153 -64.0607 911.597 -61.8106 910.052 -59.5497C915.111 -52.144 920.041 -44.6203 924.821 -36.9837C931.645 -26.082 938.109 -15.0675 944.214 -3.98322C950.319 -15.0675 956.783 -26.082 963.607 -36.9837L963.613 -36.9837ZM944.23 -177.202C932.659 -167.256 921.286 -156.559 910.192 -145.222C921.881 -133.23 933.254 -120.519 944.23 -107.206C948.602 -112.512 953.039 -117.726 957.535 -122.833C960.099 -125.744 962.685 -128.628 965.286 -131.469C969.567 -136.152 973.902 -140.732 978.274 -145.217C967.175 -156.553 955.807 -167.246 944.236 -177.197L944.23 -177.202ZM945.089 -106.169C956.505 -92.2655 967.47 -77.7013 977.899 -62.6161C978.296 -62.788 978.735 -62.8846 979.197 -62.8846C979.658 -62.8846 980.098 -62.788 980.495 -62.6161C990.924 -77.7013 1001.89 -92.2655 1013.3 -106.169C1012.62 -106.996 1011.94 -107.829 1011.26 -108.65C1000.9 -121.099 990.184 -132.999 979.197 -144.277C967.486 -132.258 956.086 -119.52 945.089 -106.169ZM1014.16 -177.202C1002.59 -167.251 991.219 -156.559 980.125 -145.222C985.827 -139.374 991.455 -133.359 996.997 -127.178C999.582 -124.299 1002.15 -121.383 1004.69 -118.44C1007.23 -115.497 1009.76 -112.517 1012.26 -109.504C1012.9 -108.742 1013.52 -107.974 1014.16 -107.206C1025.13 -120.519 1036.51 -133.225 1048.2 -145.222C1037.1 -156.559 1025.73 -167.251 1014.16 -177.202L1014.16 -177.202ZM1015.03 -106.158C1019.09 -101.212 1023.1 -96.1858 1027.05 -91.0787C1028.26 -89.5106 1029.46 -87.9424 1030.66 -86.3582C1036.99 -78.0074 1043.15 -69.4525 1049.14 -60.7311C1059.96 -76.4876 1071.36 -91.6801 1083.25 -106.158C1072.25 -119.509 1060.85 -132.247 1049.14 -144.266C1037.43 -132.247 1026.03 -119.504 1015.03 -106.158ZM1133.52 -36.2802C1128.84 -43.7556 1124.02 -51.1183 1119.08 -58.3628C1114.14 -51.1129 1109.32 -43.7503 1104.64 -36.2802C1097.67 -25.1476 1091.08 -13.9075 1084.87 -2.58694C1085.98 -0.556973 1087.08 1.47837 1088.17 3.51371C1088.9 4.87777 1089.62 6.23645 1090.34 7.60051C1091.77 10.3286 1093.18 13.0567 1094.57 15.7956C1095.27 17.165 1095.96 18.5291 1096.64 19.8985C1104.15 34.9514 1110.98 50.0957 1117.1 65.2399C1117.66 66.6147 1118.2 67.9948 1118.75 69.3697C1118.86 69.6543 1118.97 69.9389 1119.08 70.2182C1128.68 45.8531 1140.13 21.4612 1153.29 -2.58694C1147.08 -13.9075 1140.49 -25.1476 1133.53 -36.2802L1133.52 -36.2802ZM1154.06 -3.98321C1160.16 -15.0675 1166.63 -26.082 1173.45 -36.9837C1178.23 -44.6202 1183.16 -52.1494 1188.22 -59.5497C1181.02 -70.0486 1173.57 -80.3005 1165.89 -90.257C1162 -95.289 1158.05 -100.24 1154.06 -105.117C1142.15 -90.5953 1130.72 -75.3598 1119.89 -59.555C1124.95 -52.1494 1129.88 -44.6256 1134.66 -36.989C1141.48 -26.0873 1147.95 -15.0729 1154.05 -3.98859L1154.06 -3.98321ZM1103.5 -36.9837C1108.28 -44.6202 1113.21 -52.1494 1118.27 -59.5497C1107.44 -75.3544 1096.02 -90.59 1084.1 -105.111C1080.11 -100.235 1076.16 -95.2836 1072.27 -90.2516C1064.59 -80.3005 1057.13 -70.0486 1049.94 -59.5443C1051.61 -57.1008 1053.27 -54.6466 1054.91 -52.1763C1058.24 -47.1604 1061.51 -42.0962 1064.71 -36.9783C1067.21 -32.9721 1069.68 -28.9497 1072.09 -24.9166C1074.5 -20.8835 1076.86 -16.8343 1079.18 -12.7744C1079.95 -11.4211 1080.72 -10.0678 1081.47 -8.71444C1082.36 -7.13557 1083.23 -5.56209 1084.1 -3.97784C1090.21 -15.0621 1096.67 -26.0766 1103.49 -36.9783L1103.5 -36.9837ZM1084.11 -177.202C1072.54 -167.256 1061.17 -156.559 1050.07 -145.222C1061.76 -133.23 1073.14 -120.519 1084.11 -107.206C1095.09 -120.519 1106.47 -133.225 1118.15 -145.222C1107.05 -156.559 1095.68 -167.251 1084.11 -177.202ZM1084.97 -106.169C1096.86 -91.6909 1108.26 -76.4983 1119.08 -60.7419C1129.89 -76.4983 1141.3 -91.6909 1153.19 -106.169C1142.19 -119.52 1130.79 -132.258 1119.08 -144.277C1107.37 -132.258 1095.97 -119.52 1084.97 -106.169ZM1154.05 -177.202C1142.48 -167.251 1131.11 -156.559 1120.01 -145.222C1131.7 -133.23 1143.07 -120.519 1154.05 -107.206C1165.03 -120.519 1176.41 -133.225 1188.09 -145.222C1176.99 -156.559 1165.62 -167.251 1154.05 -177.202ZM1223.13 -106.158C1212.13 -119.509 1200.73 -132.247 1189.02 -144.266C1177.31 -132.247 1165.91 -119.504 1154.91 -106.158C1166.8 -91.6748 1178.21 -76.4876 1189.02 -60.7311C1199.84 -76.4876 1211.24 -91.6801 1223.13 -106.158ZM1223.24 -2.60841C1217.77 -12.5649 1212.02 -22.4678 1205.96 -32.2793C1205.14 -33.6165 1204.31 -34.9483 1203.48 -36.2802C1198.8 -43.7556 1193.97 -51.1237 1189.03 -58.3789C1184.08 -51.1237 1179.26 -43.7556 1174.58 -36.2802C1173.74 -34.9483 1172.91 -33.6111 1172.09 -32.2793C1166.04 -22.4624 1160.28 -12.5649 1154.82 -2.60842C1167.99 21.4398 1179.43 45.8263 1189.03 70.1913C1198.63 45.8263 1210.07 21.4398 1223.24 -2.60841ZM1181.39 353.635L1181.38 353.635C1181.45 353.759 1185.39 360.413 1189.02 362.496C1192.64 360.413 1196.59 353.775 1196.67 353.635L1196.66 353.635C1216.34 320.055 1225.35 274.735 1222.71 222.579C1220.32 175.363 1208.72 124.7 1189.03 73.8646C1169.34 124.694 1157.74 175.358 1155.35 222.579C1152.71 274.73 1161.72 320.05 1181.39 353.63L1181.39 353.635ZM1188.3 72.0333C1178.72 47.5287 1167.26 22.9918 1154.05 -1.20676C1140.83 22.9918 1129.37 47.5286 1119.79 72.0333C1125.35 86.2861 1130.28 100.528 1134.55 114.69C1136.2 120.162 1137.75 125.618 1139.2 131.058C1143.92 148.743 1147.59 166.255 1150.15 183.451C1150.35 184.772 1150.54 186.093 1150.72 187.414C1152.34 198.992 1153.45 210.42 1154.05 221.655C1156.56 174.123 1168.36 123.142 1188.3 72.028L1188.3 72.0333ZM1111.44 353.635C1111.44 353.635 1111.44 353.635 1111.44 353.641L1111.45 353.641C1111.48 353.705 1115.44 360.402 1119.08 362.496C1122.72 360.402 1126.68 353.727 1126.73 353.635C1146.41 320.055 1155.41 274.735 1152.77 222.579C1152.58 218.75 1152.33 214.905 1152.01 211.033C1151.8 208.455 1151.57 205.861 1151.3 203.267C1151.04 200.673 1150.75 198.063 1150.44 195.448C1145.7 156.191 1135.05 115.076 1119.08 73.8485C1103.11 115.076 1092.45 156.191 1087.72 195.448C1087.41 198.063 1087.12 200.668 1086.85 203.267C1086.59 205.866 1086.35 208.455 1086.15 211.033C1085.83 214.905 1085.58 218.75 1085.38 222.579C1082.74 274.735 1091.75 320.05 1111.43 353.63L1111.44 353.635ZM1084.11 221.655C1086.63 174.123 1098.43 123.142 1118.37 72.0279C1108.78 47.5233 1097.33 22.9864 1084.11 -1.21214C1070.9 22.9864 1059.44 47.5233 1049.85 72.0279C1069.79 123.142 1081.6 174.123 1084.11 221.655ZM1083.35 -2.60843C1077.88 -12.565 1072.12 -22.4678 1066.08 -32.2793C1065.26 -33.6165 1064.42 -34.9483 1063.59 -36.2802C1058.91 -43.7556 1054.09 -51.1237 1049.14 -58.379C1044.19 -51.1237 1039.37 -43.7556 1034.69 -36.2802C1033.86 -34.9484 1033.03 -33.6111 1032.2 -32.2793C1026.15 -22.4624 1020.4 -12.565 1014.93 -2.60843C1028.1 21.4397 1039.54 45.8263 1049.14 70.1913C1058.74 45.8263 1070.19 21.4397 1083.35 -2.60843ZM1014.16 221.655C1016.68 174.123 1028.48 123.142 1048.42 72.0279C1038.84 47.5233 1027.38 22.9864 1014.16 -1.21215C1001.47 22.052 990.387 45.6276 981.031 69.1871C981.917 69.7832 982.501 70.7928 982.501 71.9366C982.501 73.0805 981.879 74.1546 980.951 74.7399C1000.26 124.947 1011.69 174.966 1014.16 221.655ZM944.23 221.655C946.703 174.96 958.135 124.941 977.443 74.7399C976.514 74.1546 975.892 73.1181 975.892 71.9366C975.892 70.7552 976.477 69.7778 977.362 69.1871C968.006 45.6276 956.934 22.052 944.23 -1.21215C931.017 22.9864 919.558 47.5233 909.972 72.0279C929.912 123.142 941.714 174.123 944.23 221.655ZM943.468 -2.60844C938.002 -12.565 932.246 -22.4678 926.194 -32.2793C925.374 -33.6165 924.542 -34.9484 923.711 -36.2802C919.027 -43.7556 914.205 -51.1237 909.258 -58.379C904.312 -51.1237 899.489 -43.7556 894.806 -36.2802C893.138 -33.6165 891.491 -30.9421 889.865 -28.2623C885.016 -20.2713 880.365 -12.2266 875.901 -4.14433C876.261 -3.7523 876.486 -3.23138 876.486 -2.65677C876.486 -2.0553 876.245 -1.50752 875.848 -1.11012C888.674 22.4547 899.849 46.3364 909.253 70.202C918.85 45.837 930.298 21.4505 943.463 -2.5977L943.468 -2.60844ZM874.276 221.655C876.792 174.123 888.594 123.142 908.534 72.0279C899.044 47.7596 887.709 23.4643 874.662 -0.503281C874.539 -0.481796 874.415 -0.465698 874.286 -0.465698C874.158 -0.465698 874.024 -0.481796 873.895 -0.503281C860.848 23.4643 849.513 47.7596 840.023 72.0279C859.963 123.142 871.765 174.123 874.281 221.655L874.276 221.655ZM842.984 61.1047C846.391 52.8452 850.012 44.5857 853.837 36.3477C855.113 33.6035 856.412 30.8538 857.731 28.115C858.391 26.7456 859.056 25.3708 859.727 24.0014C863.085 17.1489 866.583 10.3179 870.22 3.50833C871.046 1.96706 871.883 0.425781 872.725 -1.11549C872.334 -1.51289 872.087 -2.06067 872.087 -2.66214C872.087 -3.23138 872.307 -3.74695 872.666 -4.13898C866.706 -14.9333 860.403 -25.6631 853.751 -36.2802C849.073 -43.7556 844.25 -51.1183 839.309 -58.3628C834.368 -51.1129 829.546 -43.7503 824.868 -36.2802C817.904 -25.1476 811.311 -13.9076 805.099 -2.58697C818.269 21.4612 829.712 45.8531 839.309 70.2181C840.506 67.1786 841.729 64.1443 842.979 61.1047L842.984 61.1047ZM804.343 221.655C806.022 189.938 811.832 156.685 821.434 122.885C822.212 120.156 823.012 117.423 823.832 114.69C826.719 105.114 829.905 95.5068 833.387 85.8779C834.379 83.1283 835.398 80.3734 836.439 77.6238C836.96 76.249 837.485 74.8688 838.022 73.494C838.21 73.0053 838.403 72.5166 838.596 72.0279C829.009 47.5233 817.55 22.9864 804.337 -1.21216C791.124 22.9864 779.666 47.5233 770.079 72.0279C790.019 123.142 801.821 174.123 804.337 221.655L804.343 221.655ZM803.581 -2.60845C798.114 -12.565 792.358 -22.4678 786.307 -32.2793C785.486 -33.6165 784.655 -34.9484 783.823 -36.2802C779.14 -43.7557 774.317 -51.1237 769.371 -58.379C764.425 -51.1237 759.602 -43.7557 754.919 -36.2802C754.087 -34.9484 753.256 -33.6112 752.435 -32.2793C746.829 -23.1821 741.486 -14.015 736.378 -4.79417C737.044 -4.21956 737.462 -3.37642 737.462 -2.42587C737.462 -1.52903 737.087 -0.728833 736.486 -0.154217C749.093 23.0992 760.095 46.6586 769.371 70.1966C778.968 45.8316 790.416 21.4451 803.581 -2.60306L803.581 -2.60845ZM702.292 77.6238C703.332 80.3734 704.352 83.1283 705.344 85.8779C708.826 95.5015 712.012 105.114 714.899 114.69C715.725 117.423 716.524 120.156 717.297 122.885C726.905 156.691 732.714 189.938 734.388 221.655C736.904 174.123 748.706 123.142 768.647 72.0279C759.291 48.1086 748.143 24.1625 735.332 0.533176C735.016 0.640582 734.683 0.699649 734.329 0.699649C734.013 0.699649 733.712 0.651309 733.428 0.565387C721.089 23.3354 710.296 46.3901 701.16 69.4341C701.997 69.9979 702.549 70.9539 702.549 72.0387C702.549 73.1234 701.991 74.0901 701.149 74.6486C701.53 75.6421 701.911 76.6303 702.286 77.6238L702.292 77.6238ZM664.461 221.655C666.934 174.933 678.382 124.882 697.705 74.6486C696.857 74.0901 696.3 73.1288 696.3 72.0333C696.3 70.9377 696.852 69.9926 697.689 69.4287C688.317 45.7833 677.202 22.1271 664.461 -1.21755C651.248 22.981 639.789 47.5179 630.202 72.0225C650.142 123.137 661.945 174.117 664.461 221.65L664.461 221.655ZM663.693 -2.60846C658.973 -11.2117 654.032 -19.7719 648.871 -28.2677C647.246 -30.9475 645.599 -33.6165 643.93 -36.2856C639.483 -43.3905 634.902 -50.3934 630.213 -57.2942C629.982 -57.2136 629.735 -57.1599 629.478 -57.1599C629.22 -57.1599 628.974 -57.2136 628.743 -57.2942C624.054 -50.3934 619.473 -43.3905 615.026 -36.2856C614.194 -34.9537 613.363 -33.6166 612.542 -32.2847C606.491 -22.4678 600.734 -12.5704 595.268 -2.61384C599.13 4.43735 602.837 11.5154 606.399 18.6149L633.174 34.264L612.74 31.6111C618.824 44.4407 624.414 57.3133 629.483 70.1859C639.081 45.8208 650.529 21.4343 663.693 -2.61383L663.693 -2.60846ZM594.506 221.655C597.022 174.123 608.824 123.142 628.764 72.0279C623.582 58.7848 617.853 45.5309 611.598 32.3307L601.738 50.203L605.037 18.8888C601.662 12.1706 598.154 5.4631 594.511 -1.21218C581.298 22.9864 569.84 47.5232 560.253 72.0279C580.193 123.142 591.995 174.123 594.511 221.655L594.506 221.655ZM593.755 -2.58698C587.543 -13.9076 580.95 -25.1476 573.986 -36.2802C569.308 -43.7557 564.486 -51.1183 559.545 -58.3629C554.604 -51.113 549.781 -43.7503 545.103 -36.2802C538.14 -25.1476 531.547 -13.9076 525.335 -2.58699C538.505 21.4612 549.948 45.8531 559.545 70.2181C569.142 45.8531 580.59 21.4612 593.755 -2.58698ZM524.573 221.655C527.089 174.123 538.886 123.142 558.831 72.0279C549.245 47.5232 537.786 22.9864 524.573 -1.21219C511.666 22.4279 500.438 46.3955 490.985 70.3362C491.473 70.739 491.795 71.3459 491.795 72.0279C491.795 72.7099 491.468 73.3275 490.974 73.7303C510.518 124.275 522.089 174.649 524.573 221.655ZM454.624 221.655C457.113 174.649 468.684 124.275 488.222 73.7303C487.723 73.3275 487.402 72.7153 487.402 72.0279C487.402 71.3405 487.718 70.739 488.212 70.3362C478.765 46.3901 467.531 22.4279 454.624 -1.21219C441.411 22.9864 429.952 47.5232 420.366 72.0279C440.306 123.142 452.108 174.123 454.624 221.655ZM419.99 69.3642C420.537 67.9894 421.084 66.6093 421.642 65.2345C427.763 50.0902 434.592 34.946 442.103 19.8931C442.784 18.5236 443.476 17.1542 444.168 15.7902C445.558 13.0567 446.969 10.3232 448.401 7.59509C449.12 6.23103 449.839 4.86698 450.568 3.50829C451.657 1.47295 452.757 -0.5624 453.873 -2.59237C450.043 -9.56838 446.067 -16.5175 441.953 -23.4237L413.826 -37.6711L434.11 -36.2641C434.11 -36.2641 434.104 -36.2749 434.099 -36.2802C429.421 -43.7557 424.598 -51.1184 419.657 -58.3629C414.717 -51.113 409.894 -43.7503 405.216 -36.2802C398.253 -25.1476 391.66 -13.9076 385.447 -2.587C398.617 21.4612 410.06 45.8531 419.657 70.2181C419.77 69.9335 419.877 69.6488 419.99 69.3696L419.99 69.3642ZM384.691 221.655C385.286 210.42 386.397 198.992 388.012 187.414C388.194 186.093 388.387 184.772 388.586 183.451C391.15 166.255 394.814 148.743 399.535 131.058C400.989 125.618 402.539 120.156 404.186 114.69C408.456 100.528 413.386 86.286 418.949 72.0332C409.363 47.5286 397.904 22.9917 384.691 -1.20683C371.982 22.0734 360.899 45.6651 351.538 69.246C352.428 69.8368 353.018 70.8518 353.018 72.0064C353.018 73.161 352.407 74.2029 351.495 74.7936C370.791 124.984 382.218 174.987 384.691 221.666L384.691 221.655ZM295.241 114.689C296.888 120.162 298.444 125.618 299.892 131.058C304.608 148.743 308.277 166.255 310.842 183.451C311.04 184.772 311.228 186.093 311.416 187.414C313.03 198.992 314.141 210.42 314.736 221.655C317.209 174.976 328.636 124.974 347.933 74.7828C347.015 74.1921 346.409 73.1664 346.409 71.9957C346.409 70.8249 346.999 69.8314 347.89 69.2353C338.534 45.6597 327.445 22.0627 314.736 -1.21758C301.523 22.981 290.064 47.5178 280.478 72.0225C286.041 86.2753 290.971 100.517 295.241 114.679L295.241 114.689ZM279.77 70.2181C289.367 45.8531 300.815 21.4612 313.98 -2.58701C307.768 -13.9076 301.175 -25.1476 294.211 -36.2802C289.533 -43.7557 284.711 -51.1184 279.77 -58.3629C274.829 -51.113 270.006 -43.7503 265.328 -36.2803C258.365 -25.1476 251.772 -13.9076 245.56 -2.58701C246.67 -0.557047 247.775 1.47829 248.864 3.51363C249.594 4.87769 250.313 6.23638 251.032 7.60044C252.464 10.3285 253.875 13.0566 255.264 15.7955C255.956 17.1649 256.648 18.529 257.33 19.8984C264.84 34.9513 271.669 50.0956 277.79 65.2398C278.348 66.6146 278.895 67.9948 279.443 69.3696C279.555 69.6542 279.663 69.9388 279.775 70.2181L279.77 70.2181ZM244.803 221.655C247.319 174.123 259.116 123.142 279.062 72.0279C269.475 47.5232 258.016 22.9863 244.803 -1.21221C231.59 22.9863 220.131 47.5232 210.545 72.0279C230.485 123.142 242.287 174.123 244.803 221.655ZM244.042 -2.6085C238.575 -12.565 232.819 -22.4679 226.768 -32.2794C225.941 -33.6166 225.115 -34.9484 224.284 -36.2803C219.992 -43.1381 215.577 -49.8939 211.06 -56.5639C210.636 -56.349 210.159 -56.2255 209.654 -56.2255C209.257 -56.2255 208.877 -56.3007 208.528 -56.4404C204.043 -49.8134 199.655 -43.0952 195.385 -36.2803C194.553 -34.9484 193.722 -33.6112 192.901 -32.2794C186.849 -22.4625 181.093 -12.565 175.627 -2.60851C188.797 21.4397 200.24 45.8262 209.837 70.1912C219.434 45.8262 230.882 21.4397 244.047 -2.6085L244.042 -2.6085ZM174.854 221.655C177.37 174.123 189.172 123.142 209.113 72.0279C199.526 47.5232 188.067 22.9863 174.854 -1.21222C161.641 22.9863 150.182 47.5232 140.596 72.0279C160.536 123.142 172.338 174.123 174.854 221.655ZM174.098 -2.58702C167.886 -13.9076 161.292 -25.1476 154.329 -36.2803C149.651 -43.7557 144.828 -51.1184 139.888 -58.3629C134.947 -51.113 130.124 -43.7503 125.446 -36.2803C118.483 -25.1476 111.89 -13.9076 105.678 -2.58703C118.848 21.4611 130.29 45.8531 139.888 70.2181C149.485 45.8531 160.933 21.4611 174.098 -2.58702ZM104.921 221.655C107.437 174.123 119.234 123.142 139.18 72.0279C129.593 47.5232 118.134 22.9863 104.921 -1.21223C91.7081 22.9863 80.2494 47.5232 70.6628 72.0279C90.6031 123.142 102.405 174.123 104.921 221.655ZM104.154 -2.60851C98.6875 -12.565 92.9313 -22.4679 86.88 -32.2794C86.0538 -33.6166 85.2276 -34.9484 84.3961 -36.2803C79.7128 -43.7557 74.89 -51.1238 69.9438 -58.379C64.9977 -51.1238 60.175 -43.7557 55.4917 -36.2803C54.6548 -34.9484 53.8286 -33.6112 53.0078 -32.2794C46.9565 -22.4625 41.2003 -12.565 35.7337 -2.60852C48.9039 21.4397 60.3465 45.8262 69.9438 70.1912C79.5411 45.8262 90.9892 21.4397 104.154 -2.60851ZM0.713601 72.0332C20.6539 123.148 32.456 174.128 34.972 221.66C37.488 174.128 49.2901 123.148 69.2303 72.0332C59.6438 47.5286 48.185 22.9917 34.972 -1.20686C21.759 22.9917 10.3002 47.5285 0.713601 72.0332ZM0.810048 -59.5551C5.86889 -52.1495 10.7991 -44.6257 15.5788 -36.9891C22.4027 -26.0874 28.8672 -15.073 34.972 -3.98869C41.077 -15.073 47.5414 -26.0874 54.3651 -36.9891C59.145 -44.6257 64.0749 -52.1549 69.1338 -59.5551C66.4569 -63.4593 63.7478 -67.3367 61.0011 -71.1711C52.6323 -82.8515 43.9363 -94.1828 34.9667 -105.117C23.0572 -90.5954 11.6307 -75.3599 0.79955 -59.5551L0.810048 -59.5551ZM17.7999 -127.183C19.0928 -125.744 20.3804 -124.294 21.6625 -122.839C26.1581 -117.732 30.5945 -112.517 34.9667 -107.211C45.3472 -119.804 56.0924 -131.845 67.1167 -143.262C66.7627 -143.788 66.5588 -144.422 66.5588 -145.104C66.5588 -145.834 66.8002 -146.506 67.1971 -147.053C56.6718 -157.708 45.9105 -167.788 34.9667 -177.202C23.3953 -167.251 12.0222 -156.559 0.92822 -145.222C6.63086 -139.374 12.2583 -133.359 17.8053 -127.178L17.7999 -127.183Z" fill="url(#paint0_linear_861_3122)"/>
</g>
<defs>
<linearGradient id="paint0_linear_861_3122" x1="619.5" y1="-72.5" x2="612" y2="310.5" gradientUnits="userSpaceOnUse">
<stop offset="0.144231" stop-opacity="0"/>
<stop offset="0.507768"/>
<stop offset="1" stop-opacity="0"/>
</linearGradient>
<clipPath id="clip0_861_3122">
<rect width="1224" height="286" fill="white" transform="matrix(-1 -8.74228e-08 -8.74228e-08 1 1224 0)"/>
</clipPath>
</defs>
</svg>
